# Blender 4.5.4 LTS
# www.blender.org
mtllib model9.mtl
o Cube
v 1.000000 1.000000 -1.000000
v 1.000000 -1.000000 -1.000000
v 1.000000 1.000000 1.000000
v 1.000000 -1.000000 1.000000
v -1.000000 1.000000 -1.000000
v -1.000000 -1.000000 -1.000000
v -1.000000 1.000000 1.000000
v -1.000000 -1.000000 1.000000
v 0.924000 0.929280 -1.255206
v 0.924000 -0.929280 -1.255206
v -0.924000 0.929280 -1.255206
v -0.924000 -0.929280 -1.255206
v 1.001000 1.006720 -1.554775
v 1.001000 -1.006720 -1.554775
v -1.001000 1.006720 -1.554775
v -1.001000 -1.006720 -1.554775
v -2.000000 0.500000 -0.900000
v -2.000000 -0.500000 -0.900000
v -2.000000 0.500000 0.900000
v -2.000000 -0.500000 0.900000
v 2.000000 0.500000 -0.900000
v 2.000000 -0.500000 -0.900000
v 2.000000 0.500000 0.900000
v 2.000000 -0.500000 0.900000
v 1.001000 1.006720 -2.554775
v 1.001000 -1.006720 -2.554775
v -1.001000 1.006720 -2.554775
v -1.001000 -1.006720 -2.554775
v 0.258494 0.261926 -3.345255
v 0.258494 -0.261926 -3.345255
v -0.258494 0.261926 -3.345255
v -0.258494 -0.261926 -3.345255
v 0.600600 -0.604032 -3.158093
v -0.600600 -0.604032 -3.158093
v 0.600600 0.604032 -3.158093
v -0.600600 0.604032 -3.158093
v 2.229242 -2.000000 -3.000000
v 2.229242 -2.000000 2.000000
v 2.000000 -1.500000 -1.900000
v 2.000000 -1.500000 0.900000
v -2.190678 -2.000000 -3.000000
v -2.190678 -2.000000 2.000000
v -2.000000 -1.500000 -1.900000
v -2.000000 -1.500000 0.900000
v 0.800000 0.444091 1.604062
v 0.800000 -1.155909 1.604062
v -0.800000 0.444091 1.604062
v -0.800000 -1.155909 1.604062
v 0.777691 -0.002486 2.548089
v 0.777691 -1.608980 3.000000
v -0.777691 -0.002486 2.548089
v -0.777691 -1.608980 3.000000
v -0.968000 -1.799289 3.000000
v -0.968000 0.187822 2.548089
v 0.968000 0.187822 2.548089
v 0.968000 -1.799289 3.000000
v 0.544384 0.066224 1.598918
v 0.544384 -1.011343 1.598918
v -0.544384 0.066224 1.598918
v -0.544384 -1.011343 1.598918
v 0.707699 0.444975 1.051395
v 0.707699 -0.955863 1.051395
v -0.707699 0.444975 1.051395
v -0.707699 -0.955863 1.051395
v 0.707699 0.444975 -0.961229
v 0.707699 -0.955863 -0.961229
v -0.707699 0.444975 -0.961229
v -0.707699 -0.955863 -0.961229
v 0.707699 0.444975 -1.042064
v 0.707699 -0.955863 -1.042064
v -0.707699 0.444975 -1.042064
v -0.707699 -0.955863 -1.042064
v 0.636929 0.374933 -1.211821
v 0.636929 -0.885821 -1.211821
v -0.636929 0.374933 -1.211821
v -0.636929 -0.885821 -1.211821
v 0.700622 0.437971 -1.580655
v 0.700622 -0.948859 -1.580655
v -0.700622 0.437971 -1.580655
v -0.700622 -0.948859 -1.580655
v 0.840746 0.798760 -1.957522
v 0.840746 -0.865435 -1.957522
v -0.840746 0.798760 -1.957522
v -0.840746 -0.865435 -1.957522
v -1.916786 0.426988 0.640787
v -1.916786 -0.553599 0.640787
v -1.916786 0.426988 -0.768050
v -1.916786 -0.553599 -0.768050
v -0.638278 0.006244 -0.931695
v -0.638278 -0.974343 -0.931695
v 1.900124 0.469836 0.749501
v 1.900124 -0.510751 0.749501
v 1.900124 0.469836 -0.659335
v 1.900124 -0.510751 -0.659335
v 0.840746 0.798760 -2.557109
v 0.840746 -0.865435 -2.557109
v -0.840746 0.798760 -2.557109
v -0.840746 -0.865435 -2.557109
v 0.588522 0.549131 -2.909930
v 0.588522 -0.615806 -2.909930
v -0.588522 0.549131 -2.909930
v -0.588522 -0.615806 -2.909930
v 0.470818 0.479232 -3.190458
v 0.470818 -0.452718 -3.190458
v -0.470818 0.479232 -3.190458
v -0.470818 -0.452718 -3.190458
v 0.777691 -1.769691 3.913127
v -0.777691 -1.769691 3.913127
v -0.968000 -1.960000 3.913127
v 0.968000 -1.960000 3.913127
vn -0.0000 1.0000 -0.0000
vn -0.0000 -0.9683 -0.2499
vn -0.0995 -0.0000 0.9950
vn -0.0000 -1.0000 -0.0000
vn 0.0995 -0.0000 0.9950
vn -0.9584 -0.0000 -0.2854
vn -0.9685 -0.0000 0.2489
vn -0.0000 -0.9637 -0.2670
vn -0.0000 0.9637 -0.2670
vn 0.9584 -0.0000 -0.2854
vn -0.0000 -0.9682 0.2503
vn -0.0000 0.9682 0.2503
vn 0.9685 -0.0000 0.2489
vn -1.0000 -0.0000 -0.0000
vn 0.6431 -0.7658 -0.0000
vn -0.4472 0.8944 -0.0000
vn -0.0995 -0.0000 -0.9950
vn 1.0000 -0.0000 -0.0000
vn 0.0995 -0.0000 -0.9950
vn -0.6311 -0.7757 -0.0000
vn 0.4472 0.8944 -0.0000
vn -0.0000 0.8317 -0.5552
vn -0.0000 -0.0000 -1.0000
vn 0.8332 -0.0000 -0.5530
vn -0.8332 -0.0000 -0.5530
vn -0.0000 -0.8317 -0.5552
vn -0.0000 -0.4800 -0.8773
vn 0.4800 -0.0000 -0.8773
vn -0.4800 -0.0000 -0.8773
vn -0.0000 0.4800 -0.8773
vn 0.9090 0.4168 -0.0000
vn 0.3654 0.5861 0.7231
vn -0.1268 0.8006 -0.5857
vn -0.9344 0.3563 -0.0000
vn -0.3632 0.5806 0.7287
vn 0.1248 0.8020 -0.5842
vn -0.0000 0.9651 0.2620
vn -0.0000 0.7358 0.6772
vn 0.9493 -0.0000 0.3143
vn -0.9493 -0.0000 0.3143
vn -0.0000 -0.9974 -0.0722
vn -0.9886 -0.0188 -0.1492
vn -0.0000 -0.9082 -0.4186
vn 0.9886 -0.0188 -0.1492
vn -0.0000 0.2439 0.9698
vn -0.0000 -0.0000 1.0000
vn 0.7017 0.7017 0.1235
vn -0.0000 0.9949 0.1008
vn 0.9784 0.0343 0.2040
vn -0.0000 0.9198 0.3924
vn -0.9784 0.0343 0.2040
vn -0.9583 -0.0000 -0.2858
vn -0.0000 -0.8224 -0.5689
vn 0.9583 -0.0000 -0.2858
vn 0.3157 0.9489 -0.0000
vn 0.8465 -0.0000 -0.5324
vn -0.2454 -0.0000 -0.9694
vn 0.9230 -0.0000 0.3848
vn -0.0000 0.9857 -0.1685
vn -0.0000 0.9244 0.3814
vn -0.9230 -0.0000 0.3848
vn -0.0000 -0.9244 0.3814
vn -0.0000 -0.7223 -0.6915
vn -0.9854 -0.0000 -0.1702
vn -0.0000 -0.9857 -0.1685
vn 0.9854 -0.0000 -0.1702
vn 0.9373 -0.0000 -0.3485
vn -0.0000 0.9764 0.2161
vn -0.9373 -0.0000 -0.3485
vn 0.1270 -0.0000 0.9919
vn 0.0149 -0.9999 -0.0000
vn 0.2185 0.0999 0.9707
vn 0.3216 -0.0000 -0.9469
vn -0.2943 -0.9508 0.0970
vn -0.3497 0.9369 -0.0000
vn 0.0208 -0.9998 -0.0000
vn -0.2454 -0.0000 0.9694
vn -0.0000 0.8163 0.5776
vn -0.0000 0.8645 0.5026
vn -0.8135 -0.0000 0.5816
vn -0.0000 -0.8163 0.5776
vn 0.8135 -0.0000 0.5816
vn -0.9221 -0.0000 0.3869
vn -0.0000 -0.9703 0.2418
vn 0.9221 -0.0000 0.3869
vn -0.0000 0.9849 0.1733
vn -0.0000 -0.9849 -0.1733
vn -0.7017 0.7017 0.1235
vt 0.625000 0.500000
vt 0.875000 0.500000
vt 0.875000 0.750000
vt 0.625000 0.750000
vt 0.125000 0.750000
vt 0.375000 0.750000
vt 0.375000 1.000000
vt 0.625000 1.000000
vt 0.125000 0.500000
vt 0.375000 0.500000
vt 0.375000 0.250000
vt 0.625000 0.250000
vt 0.375000 0.000000
vt 0.625000 0.000000
vt 0.445796 0.321201
vt 0.554204 0.321201
vt 0.554204 0.428799
vt 0.445796 0.428799
vt 0.600220 0.774575
vt 0.600220 0.975425
vt 0.399780 0.975425
vt 0.399780 0.774575
s 0
usemtl Material
f 1/1/1 5/2/1 7/3/1 3/4/1
f 8/5/2 4/6/2 46/6/2 48/5/2
f 8/7/3 7/8/3 19/8/3 20/7/3
f 6/9/4 2/10/4 4/6/4 8/5/4
f 3/4/5 4/6/5 24/6/5 23/4/5
f 6/11/6 5/12/6 11/12/6 12/11/6
f 12/11/7 11/12/7 15/12/7 16/11/7
f 2/10/8 6/9/8 12/9/8 10/10/8
f 5/2/9 1/1/9 9/1/9 11/2/9
f 1/1/10 2/10/10 10/10/10 9/1/10
f 15/2/1 13/1/1 25/1/1 27/2/1
f 10/10/11 12/9/11 16/9/11 14/10/11
f 11/2/12 9/1/12 13/1/12 15/2/12
f 9/1/13 10/10/13 14/10/13 13/1/13
f 20/13/14 19/14/14 17/12/14 18/11/14
f 6/9/15 8/5/15 42/5/15 41/9/15
f 7/3/16 5/2/16 17/2/16 19/3/16
f 5/12/17 6/11/17 18/11/17 17/12/17
f 22/10/18 21/1/18 23/4/18 24/6/18
f 2/10/19 1/1/19 21/1/19 22/10/19
f 4/6/20 2/10/20 37/10/20 38/6/20
f 1/1/21 3/4/21 23/4/21 21/1/21
f 27/2/22 25/1/22 35/1/22 36/2/22
f 13/1/18 14/10/18 26/10/18 25/1/18
f 16/11/14 15/12/14 27/12/14 28/11/14
f 14/10/4 16/9/4 28/9/4 26/10/4
f 32/15/23 31/16/23 29/17/23 30/18/23
f 25/1/24 26/10/24 33/10/24 35/1/24
f 28/11/25 27/12/25 36/12/25 34/11/25
f 26/10/26 28/9/26 34/9/26 33/10/26
f 32/15/27 30/18/27 33/10/27 34/11/27
f 30/18/28 29/17/28 35/1/28 33/10/28
f 31/16/29 32/15/29 34/11/29 36/12/29
f 29/17/30 31/16/30 36/12/30 35/1/30
f 38/6/31 37/10/31 39/10/31 40/6/31
f 24/6/32 4/6/32 38/6/32 40/6/32
f 2/10/33 22/10/33 39/10/33 37/10/33
f 22/10/18 24/6/18 40/6/18 39/10/18
f 41/9/34 42/5/34 44/5/34 43/9/34
f 8/7/35 20/7/35 44/7/35 42/7/35
f 18/11/36 6/11/36 41/11/36 43/11/36
f 20/13/14 18/11/14 43/11/14 44/13/14
f 45/4/37 47/3/37 54/3/37 55/4/37
f 3/4/38 7/3/38 47/3/38 45/4/38
f 4/6/39 3/4/39 45/4/39 46/6/39
f 7/8/40 8/7/40 48/7/40 47/8/40
f 49/19/41 51/20/41 59/20/41 57/19/41
f 47/8/42 48/7/42 53/7/42 54/8/42
f 48/5/43 46/6/43 56/6/43 53/5/43
f 46/6/44 45/4/44 55/4/44 56/6/44
f 52/21/45 51/20/45 54/8/45 53/7/45
f 49/19/45 50/22/45 56/6/45 55/4/45
f 51/20/46 49/19/46 55/4/46 54/8/46
f 56/6/47 50/22/47 107/22/47 110/6/47
f 60/21/48 58/22/48 62/22/48 64/21/48
f 51/20/49 52/21/49 60/21/49 59/20/49
f 52/21/50 50/22/50 58/22/50 60/21/50
f 50/22/51 49/19/51 57/19/51 58/22/51
f 61/19/4 63/20/4 67/20/4 65/19/4
f 58/22/52 57/19/52 61/19/52 62/22/52
f 57/19/53 59/20/53 63/20/53 61/19/53
f 59/20/54 60/21/54 64/21/54 63/20/54
f 64/21/55 68/21/55 88/21/55 86/21/55
f 72/21/56 71/20/56 89/20/56 90/21/56
f 64/21/1 62/22/1 66/22/1 68/21/1
f 62/22/57 61/19/57 91/19/57 92/22/57
f 71/20/58 72/21/58 76/21/58 75/20/58
f 68/21/1 66/22/1 70/22/1 72/21/1
f 66/22/14 65/19/14 69/19/14 70/22/14
f 65/19/4 67/20/4 71/20/4 69/19/4
f 76/21/59 74/22/59 78/22/59 80/21/59
f 72/21/60 70/22/60 74/22/60 76/21/60
f 70/22/61 69/19/61 73/19/61 74/22/61
f 69/19/62 71/20/62 75/20/62 73/19/62
f 77/19/63 79/20/63 83/20/63 81/19/63
f 74/22/64 73/19/64 77/19/64 78/22/64
f 73/19/65 75/20/65 79/20/65 77/19/65
f 75/20/66 76/21/66 80/21/66 79/20/66
f 84/21/1 82/22/1 96/22/1 98/21/1
f 79/20/67 80/21/67 84/21/67 83/20/67
f 80/21/68 78/22/68 82/22/68 84/21/68
f 78/22/69 77/19/69 81/19/69 82/22/69
f 87/20/70 88/21/70 90/21/70 89/20/70
f 85/20/18 86/21/18 88/21/18 87/20/18
f 67/20/71 63/20/71 85/20/71 87/20/71
f 71/20/72 67/20/72 87/20/72 89/20/72
f 63/20/73 64/21/73 86/21/73 85/20/73
f 68/21/74 72/21/74 90/21/74 88/21/74
f 92/22/14 91/19/14 93/19/14 94/22/14
f 66/22/75 62/22/75 92/22/75 94/22/75
f 61/19/76 65/19/76 93/19/76 91/19/76
f 65/19/77 66/22/77 94/22/77 93/19/77
f 98/21/78 96/22/78 100/22/78 102/21/78
f 82/22/14 81/19/14 95/19/14 96/22/14
f 81/19/4 83/20/4 97/20/4 95/19/4
f 83/20/18 84/21/18 98/21/18 97/20/18
f 102/21/79 100/22/79 104/22/79 106/21/79
f 96/22/80 95/19/80 99/19/80 100/22/80
f 95/19/81 97/20/81 101/20/81 99/19/81
f 97/20/82 98/21/82 102/21/82 101/20/82
f 104/22/46 103/19/46 105/20/46 106/21/46
f 100/22/83 99/19/83 103/19/83 104/22/83
f 99/19/84 101/20/84 105/20/84 103/19/84
f 101/20/85 102/21/85 106/21/85 105/20/85
f 107/22/46 108/21/46 109/7/46 110/6/46
f 50/22/86 52/21/86 108/21/86 107/22/86
f 53/5/87 56/6/87 110/6/87 109/5/87
f 52/21/88 53/7/88 109/7/88 108/21/88
